<?xml version="1.0" encoding="UTF-8"?>
<svg xmlns="http://www.w3.org/2000/svg" width="857pt" height="880pt" viewBox="0 0 857 880">
  <rect width="100%" height="100%" style="fill:#0073aa;" />
  <g transform="matrix(0.1,0,0,-0.1,195.63559,684.36441)">
    <path d="m 3590,4165 0,-857 378,5 c 319,3 386,7 437,21 194,56 317,177 355,347 7,33 11,94 8,145 -6,138 -58,232 -163,299 -52,33 -161,75 -194,75 -34,0 -33,18 1,25 54,12 151,60 189,93 20,17 51,60 70,94 34,62 34,65 34,188 0,122 -1,127 -33,192 -37,76 -88,123 -173,162 -113,52 -166,58 -551,63 l -358,5 0,-857 z m 648,675 c 167,-27 239,-84 264,-204 22,-112 -20,-238 -95,-285 -76,-47 -118,-53 -379,-58 l -248,-5 0,281 0,281 198,0 c 108,0 226,-5 260,-10 z m 112,-748 c 91,-30 143,-71 177,-140 25,-50 28,-68 27,-147 -1,-139 -44,-219 -148,-272 -83,-42 -161,-53 -403,-53 l -223,0 0,321 0,321 253,-4 c 224,-4 259,-7 317,-26 z" style="fill:#ffffff" />
    <path d="m 2712,4551 c -65,-23 -135,-88 -158,-148 l -16,-42 -902,-4 c -800,-3 -908,-5 -961,-20 -332,-91 -574,-336 -653,-662 -23,-95 -23,-295 0,-390 79,-326 320,-571 653,-662 54,-15 221,-17 1825,-23 1429,-4 1773,-8 1805,-19 145,-48 259,-117 347,-208 366,-385 230,-1005 -265,-1203 -40,-16 -102,-34 -137,-39 -42,-7 -396,-11 -1005,-11 l -940,0 -18,49 c -33,93 -148,171 -252,171 -144,0 -275,-131 -275,-275 0,-111 85,-228 189,-259 68,-20 103,-20 170,0 63,18 144,88 163,140 l 12,33 985,4 c 880,3 992,5 1046,20 332,91 574,336 653,662 23,95 23,295 0,390 -79,326 -320,571 -653,662 -54,15 -221,17 -1825,23 -1429,4 -1773,8 -1805,19 -192,64 -334,166 -430,311 -262,394 -95,922 348,1100 40,16 102,34 137,39 42,7 372,11 927,11 l 862,0 19,-42 c 39,-87 150,-158 247,-158 111,0 228,85 259,189 32,110 11,199 -68,277 -79,80 -176,102 -284,65 z" style="fill:#ffffff" />
    <path d="M 673,1733 C 660,1702 48,148 19,72 l -9,-23 102,3 102,3 102,265 103,265 347,0 347,0 103,-264 c 57,-145 106,-266 108,-268 2,-2 48,-2 103,-1 l 100,3 -336,858 -336,857 -83,0 -83,0 -16,-37 z m 121,-268 c 10,-33 69,-198 132,-366 63,-168 114,-311 114,-318 0,-8 -74,-11 -270,-11 -202,0 -270,3 -270,12 0,6 44,129 99,272 101,267 161,443 161,473 0,29 15,1 34,-62 z" style="fill:#ffffff" />
  </g>
</svg>
